<svg width="59" height="40" viewBox="0 0 59 40" fill="none" xmlns="http://www.w3.org/2000/svg">
<path d="M39.3333 6.55555V32.7778H6.55556V6.55555H39.3333ZM42.6111 0H3.27778C2.40846 0 1.57474 0.345337 0.960039 0.960039C0.345336 1.57474 0 2.40846 0 3.27778V36.0555C0 36.9249 0.345336 37.7586 0.960039 38.3733C1.57474 38.988 2.40846 39.3333 3.27778 39.3333H42.6111C43.4804 39.3333 44.3141 38.988 44.9289 38.3733C45.5436 37.7586 45.8889 36.9249 45.8889 36.0555V24.5833L59 37.6944V1.63889L45.8889 14.75V3.27778C45.8889 2.40846 45.5436 1.57474 44.9289 0.960039C44.3141 0.345337 43.4804 0 42.6111 0Z" fill="#7A7A7A"/>
</svg>
