<svg width="49" height="49" viewBox="0 0 49 49" fill="none" xmlns="http://www.w3.org/2000/svg">
<path d="M48.9999 23.1389C49.0093 26.7319 48.1698 30.2763 46.5499 33.4834C44.6292 37.3264 41.6765 40.5589 38.0224 42.8186C34.3684 45.0783 30.1574 46.2761 25.8611 46.2778C22.2681 46.2872 18.7237 45.4477 15.5166 43.8278L0 49L5.17221 33.4834C3.55231 30.2763 2.71285 26.7319 2.72222 23.1389C2.72388 18.8426 3.92166 14.6316 6.18139 10.9776C8.44112 7.32352 11.6736 4.37078 15.5166 2.45007C18.7237 0.830167 22.2681 -0.00929029 25.8611 7.75508e-05H27.2222C32.8962 0.31311 38.2554 2.70803 42.2737 6.72629C46.292 10.7446 48.6869 16.1038 48.9999 21.7778V23.1389Z" fill="#7A7A7A"/>
</svg>
