<svg width="50" height="47" viewBox="0 0 50 47" fill="none" xmlns="http://www.w3.org/2000/svg">
<path d="M15.4427 23.5C12.6302 23.5874 10.3299 24.7065 8.54167 26.8571H5.05208C3.62847 26.8571 2.43056 26.5031 1.45833 25.7949C0.486111 25.0868 0 24.0508 0 22.6869C0 16.5147 1.07639 13.4286 3.22917 13.4286C3.33333 13.4286 3.71094 13.6122 4.36198 13.9794C5.01302 14.3465 5.85938 14.7181 6.90104 15.094C7.94271 15.47 8.97569 15.6579 10 15.6579C11.1632 15.6579 12.3177 15.4568 13.4635 15.0547C13.3767 15.7016 13.3333 16.2786 13.3333 16.7857C13.3333 19.2161 14.0365 21.4542 15.4427 23.5ZM43.3333 40.207C43.3333 42.3052 42.6997 43.962 41.4323 45.1772C40.1649 46.3924 38.4809 47 36.3802 47H13.6198C11.5191 47 9.83507 46.3924 8.56771 45.1772C7.30035 43.962 6.66667 42.3052 6.66667 40.207C6.66667 39.2803 6.69705 38.3755 6.75781 37.4925C6.81858 36.6095 6.9401 35.6565 7.1224 34.6337C7.30469 33.6108 7.53472 32.6622 7.8125 31.7879C8.09028 30.9137 8.46354 30.0613 8.93229 29.2307C9.40104 28.4002 9.93924 27.6921 10.5469 27.1063C11.1545 26.5206 11.8967 26.0528 12.7734 25.7031C13.6502 25.3534 14.6181 25.1786 15.6771 25.1786C15.8507 25.1786 16.224 25.3665 16.7969 25.7425C17.3698 26.1184 18.0035 26.538 18.6979 27.0014C19.3924 27.4648 20.3212 27.8844 21.4844 28.2603C22.6476 28.6363 23.8194 28.8242 25 28.8242C26.1806 28.8242 27.3524 28.6363 28.5156 28.2603C29.6788 27.8844 30.6076 27.4648 31.3021 27.0014C31.9965 26.538 32.6302 26.1184 33.2031 25.7425C33.776 25.3665 34.1493 25.1786 34.3229 25.1786C35.3819 25.1786 36.3498 25.3534 37.2266 25.7031C38.1033 26.0528 38.8455 26.5206 39.4531 27.1063C40.0608 27.6921 40.599 28.4002 41.0677 29.2307C41.5365 30.0613 41.9097 30.9137 42.1875 31.7879C42.4653 32.6622 42.6953 33.6108 42.8776 34.6337C43.0599 35.6565 43.1814 36.6095 43.2422 37.4925C43.303 38.3755 43.3333 39.2803 43.3333 40.207ZM16.6667 6.71429C16.6667 8.56771 16.0156 10.1501 14.7135 11.4615C13.4115 12.7729 11.8403 13.4286 10 13.4286C8.15972 13.4286 6.58854 12.7729 5.28646 11.4615C3.98438 10.1501 3.33333 8.56771 3.33333 6.71429C3.33333 4.86086 3.98438 3.27846 5.28646 1.96708C6.58854 0.655692 8.15972 0 10 0C11.8403 0 13.4115 0.655692 14.7135 1.96708C16.0156 3.27846 16.6667 4.86086 16.6667 6.71429ZM35 16.7857C35 19.5658 34.0234 21.9395 32.0703 23.9065C30.1172 25.8736 27.7604 26.8571 25 26.8571C22.2396 26.8571 19.8828 25.8736 17.9297 23.9065C15.9766 21.9395 15 19.5658 15 16.7857C15 14.0056 15.9766 11.632 17.9297 9.6649C19.8828 7.69782 22.2396 6.71429 25 6.71429C27.7604 6.71429 30.1172 7.69782 32.0703 9.6649C34.0234 11.632 35 14.0056 35 16.7857ZM50 22.6869C50 24.0508 49.5139 25.0868 48.5417 25.7949C47.5694 26.5031 46.3715 26.8571 44.9479 26.8571H41.4583C39.6701 24.7065 37.3698 23.5874 34.5573 23.5C35.9635 21.4542 36.6667 19.2161 36.6667 16.7857C36.6667 16.2786 36.6233 15.7016 36.5365 15.0547C37.6823 15.4568 38.8368 15.6579 40 15.6579C41.0243 15.6579 42.0573 15.47 43.099 15.094C44.1406 14.7181 44.987 14.3465 45.638 13.9794C46.2891 13.6122 46.6667 13.4286 46.7708 13.4286C48.9236 13.4286 50 16.5147 50 22.6869ZM46.6667 6.71429C46.6667 8.56771 46.0156 10.1501 44.7135 11.4615C43.4115 12.7729 41.8403 13.4286 40 13.4286C38.1597 13.4286 36.5885 12.7729 35.2865 11.4615C33.9844 10.1501 33.3333 8.56771 33.3333 6.71429C33.3333 4.86086 33.9844 3.27846 35.2865 1.96708C36.5885 0.655692 38.1597 0 40 0C41.8403 0 43.4115 0.655692 44.7135 1.96708C46.0156 3.27846 46.6667 4.86086 46.6667 6.71429Z" fill="#7A7A7A"/>
</svg>
