<svg width="44" height="51" viewBox="0 0 44 51" fill="none" xmlns="http://www.w3.org/2000/svg">
<path d="M43.7659 21.2178C43.7659 37.2542 22.0831 50.9996 22.0831 50.9996C22.0831 50.9996 0.400391 37.2542 0.400391 21.2178C0.400391 15.7495 2.68482 10.5052 6.75112 6.63853C10.8174 2.77188 16.3325 0.599609 22.0831 0.599609C27.8338 0.599609 33.3489 2.77188 37.4152 6.63853C41.4815 10.5052 43.7659 15.7495 43.7659 21.2178Z" fill="#7A7A7A"/>
<path d="M22.0831 28.0902C26.0747 28.0902 29.3106 25.0132 29.3106 21.2175C29.3106 17.4218 26.0747 14.3447 22.0831 14.3447C18.0914 14.3447 14.8555 17.4218 14.8555 21.2175C14.8555 25.0132 18.0914 28.0902 22.0831 28.0902Z" fill="#7A7A7A" stroke="white" stroke-width="2" stroke-linecap="round" stroke-linejoin="round"/>
</svg>
