<svg width="41" height="51" viewBox="0 0 41 51" fill="none" xmlns="http://www.w3.org/2000/svg">
<path d="M17.9375 38.25H23.0625V22.95H17.9375V38.25ZM20.5 17.85C21.226 17.85 21.8351 17.6052 22.3271 17.1156C22.8191 16.626 23.0642 16.0208 23.0625 15.3C23.0608 14.5792 22.8148 13.974 22.3245 13.4844C21.8342 12.9948 21.226 12.75 20.5 12.75C19.774 12.75 19.1658 12.9948 18.6755 13.4844C18.1852 13.974 17.9392 14.5792 17.9375 15.3C17.9358 16.0208 18.1818 16.6269 18.6755 17.1182C19.1692 17.6095 19.7774 17.8534 20.5 17.85ZM20.5 51C14.5635 49.5125 9.66233 46.1227 5.79638 40.8306C1.93042 35.5385 -0.0017072 29.6633 1.13185e-06 23.205V7.65L20.5 0L41 7.65V23.205C41 29.665 39.0679 35.541 35.2036 40.8331C31.3394 46.1253 26.4382 49.5142 20.5 51ZM20.5 45.645C24.9417 44.2425 28.6146 41.4375 31.5187 37.23C34.4229 33.0225 35.875 28.3475 35.875 23.205V11.1562L20.5 5.41875L5.125 11.1562V23.205C5.125 28.3475 6.57708 33.0225 9.48125 37.23C12.3854 41.4375 16.0583 44.2425 20.5 45.645Z" fill="#7A7A7A"/>
</svg>
