<svg width="18" height="17" viewBox="0 0 18 17" fill="none" xmlns="http://www.w3.org/2000/svg">
<path d="M17.0651 8.02779C17.0684 9.27433 16.776 10.504 16.2118 11.6167C15.5429 12.95 14.5146 14.0714 13.242 14.8554C11.9694 15.6394 10.5029 16.055 9.00658 16.0556C7.75527 16.0588 6.52088 15.7676 5.40395 15.2056L0 17L1.80132 11.6167C1.23715 10.504 0.944799 9.27433 0.948061 8.02779C0.94864 6.53723 1.36579 5.07627 2.15278 3.80854C2.93977 2.54081 4.06553 1.51639 5.40395 0.850026C6.52088 0.288017 7.75527 -0.00322316 9.00658 2.69054e-05H9.48061C11.4567 0.10863 13.3231 0.939522 14.7226 2.33361C16.122 3.7277 16.9561 5.58702 17.0651 7.55557V8.02779Z" fill="white"/>
</svg>
