<svg width="21" height="20" viewBox="0 0 21 20" fill="none" xmlns="http://www.w3.org/2000/svg">
<path d="M6.48594 9.8C5.30469 9.83646 4.33854 10.3031 3.5875 11.2H2.12188C1.52396 11.2 1.02083 11.0523 0.6125 10.757C0.204167 10.4617 0 10.0297 0 9.46094C0 6.88698 0.452083 5.6 1.35625 5.6C1.4 5.6 1.55859 5.67656 1.83203 5.82969C2.10547 5.98281 2.46094 6.13776 2.89844 6.29453C3.33594 6.4513 3.76979 6.52969 4.2 6.52969C4.68854 6.52969 5.17344 6.44583 5.65469 6.27813C5.61823 6.54792 5.6 6.78854 5.6 7C5.6 8.01354 5.89531 8.94688 6.48594 9.8ZM18.2 16.7672C18.2 17.6422 17.9339 18.3331 17.4016 18.8398C16.8693 19.3466 16.162 19.6 15.2797 19.6H5.72031C4.83802 19.6 4.13073 19.3466 3.59844 18.8398C3.06615 18.3331 2.8 17.6422 2.8 16.7672C2.8 16.3807 2.81276 16.0034 2.83828 15.6352C2.8638 15.2669 2.91484 14.8695 2.99141 14.443C3.06797 14.0164 3.16458 13.6208 3.28125 13.2563C3.39792 12.8917 3.55469 12.5362 3.75156 12.1898C3.94844 11.8435 4.17448 11.5482 4.42969 11.3039C4.6849 11.0596 4.99661 10.8646 5.36484 10.7188C5.73307 10.5729 6.13958 10.5 6.58437 10.5C6.65729 10.5 6.81406 10.5784 7.05469 10.7352C7.29531 10.8919 7.56146 11.0669 7.85313 11.2602C8.14479 11.4534 8.5349 11.6284 9.02344 11.7852C9.51198 11.9419 10.0042 12.0203 10.5 12.0203C10.9958 12.0203 11.488 11.9419 11.9766 11.7852C12.4651 11.6284 12.8552 11.4534 13.1469 11.2602C13.4385 11.0669 13.7047 10.8919 13.9453 10.7352C14.1859 10.5784 14.3427 10.5 14.4156 10.5C14.8604 10.5 15.2669 10.5729 15.6352 10.7188C16.0034 10.8646 16.3151 11.0596 16.5703 11.3039C16.8255 11.5482 17.0516 11.8435 17.2484 12.1898C17.4453 12.5362 17.6021 12.8917 17.7188 13.2563C17.8354 13.6208 17.932 14.0164 18.0086 14.443C18.0852 14.8695 18.1362 15.2669 18.1617 15.6352C18.1872 16.0034 18.2 16.3807 18.2 16.7672ZM7 2.8C7 3.57292 6.72656 4.23281 6.17969 4.77969C5.63281 5.32656 4.97292 5.6 4.2 5.6C3.42708 5.6 2.76719 5.32656 2.22031 4.77969C1.67344 4.23281 1.4 3.57292 1.4 2.8C1.4 2.02708 1.67344 1.36719 2.22031 0.820313C2.76719 0.273438 3.42708 0 4.2 0C4.97292 0 5.63281 0.273438 6.17969 0.820313C6.72656 1.36719 7 2.02708 7 2.8ZM14.7 7C14.7 8.15938 14.2898 9.14922 13.4695 9.96953C12.6492 10.7898 11.6594 11.2 10.5 11.2C9.34062 11.2 8.35078 10.7898 7.53047 9.96953C6.71016 9.14922 6.3 8.15938 6.3 7C6.3 5.84063 6.71016 4.85078 7.53047 4.03047C8.35078 3.21016 9.34062 2.8 10.5 2.8C11.6594 2.8 12.6492 3.21016 13.4695 4.03047C14.2898 4.85078 14.7 5.84063 14.7 7ZM21 9.46094C21 10.0297 20.7958 10.4617 20.3875 10.757C19.9792 11.0523 19.476 11.2 18.8781 11.2H17.4125C16.6615 10.3031 15.6953 9.83646 14.5141 9.8C15.1047 8.94688 15.4 8.01354 15.4 7C15.4 6.78854 15.3818 6.54792 15.3453 6.27813C15.8266 6.44583 16.3115 6.52969 16.8 6.52969C17.2302 6.52969 17.6641 6.4513 18.1016 6.29453C18.5391 6.13776 18.8945 5.98281 19.168 5.82969C19.4414 5.67656 19.6 5.6 19.6437 5.6C20.5479 5.6 21 6.88698 21 9.46094ZM19.6 2.8C19.6 3.57292 19.3266 4.23281 18.7797 4.77969C18.2328 5.32656 17.5729 5.6 16.8 5.6C16.0271 5.6 15.3672 5.32656 14.8203 4.77969C14.2734 4.23281 14 3.57292 14 2.8C14 2.02708 14.2734 1.36719 14.8203 0.820313C15.3672 0.273438 16.0271 0 16.8 0C17.5729 0 18.2328 0.273438 18.7797 0.820313C19.3266 1.36719 19.6 2.02708 19.6 2.8Z" fill="white"/>
</svg>
