<svg width="19" height="21" viewBox="0 0 19 21" fill="none" xmlns="http://www.w3.org/2000/svg">
<path d="M18.069 8.59091C18.069 15.2727 9.03448 21 9.03448 21C9.03448 21 0 15.2727 0 8.59091C3.57046e-08 6.31246 0.951844 4.12733 2.64614 2.51622C4.34043 0.905111 6.63839 0 9.03448 0C11.4306 0 13.7285 0.905111 15.4228 2.51622C17.1171 4.12733 18.069 6.31246 18.069 8.59091Z" fill="white"/>
<path d="M9.03493 11.4548C10.6981 11.4548 12.0464 10.1727 12.0464 8.59118C12.0464 7.00963 10.6981 5.72754 9.03493 5.72754C7.37173 5.72754 6.02344 7.00963 6.02344 8.59118C6.02344 10.1727 7.37173 11.4548 9.03493 11.4548Z" stroke="#7A7A7A" stroke-width="2" stroke-linecap="round" stroke-linejoin="round"/>
</svg>
