<svg width="21" height="26" viewBox="0 0 21 26" fill="none" xmlns="http://www.w3.org/2000/svg">
<path d="M9.1875 19.5H11.8125V11.7H9.1875V19.5ZM10.5 9.1C10.8719 9.1 11.1838 8.9752 11.4358 8.7256C11.6878 8.476 11.8134 8.16747 11.8125 7.8C11.8116 7.43253 11.6856 7.124 11.4345 6.8744C11.1834 6.6248 10.8719 6.5 10.5 6.5C10.1281 6.5 9.81663 6.6248 9.5655 6.8744C9.31438 7.124 9.18838 7.43253 9.1875 7.8C9.18663 8.16747 9.31263 8.47643 9.5655 8.7269C9.81838 8.97737 10.1299 9.10173 10.5 9.1ZM10.5 26C7.45937 25.2417 4.949 23.5135 2.96888 20.8156C0.988751 18.1177 -0.00087442 15.1225 5.79726e-07 11.83V3.9L10.5 0L21 3.9V11.83C21 15.1233 20.0104 18.119 18.0311 20.8169C16.0519 23.5148 13.5415 25.2425 10.5 26ZM10.5 23.27C12.775 22.555 14.6562 21.125 16.1437 18.98C17.6312 16.835 18.375 14.4517 18.375 11.83V5.6875L10.5 2.7625L2.625 5.6875V11.83C2.625 14.4517 3.36875 16.835 4.85625 18.98C6.34375 21.125 8.225 22.555 10.5 23.27Z" fill="white"/>
</svg>
